<svg xmlns="http://www.w3.org/2000/svg" width="800" height="600" viewBox="0 0 800 600" fill="none">
  <defs><linearGradient id="rrg2" x1="0" y1="0" x2="800" y2="600" gradientUnits="userSpaceOnUse"><stop offset="0%" stop-color="#08324A"/><stop offset="100%" stop-color="#0E5A6B"/></linearGradient></defs>
  <rect width="800" height="600" fill="url(#rrg2)"/>
  <!-- Room -->
  <rect x="150" y="160" width="500" height="330" rx="3" fill="#06281E" opacity="0.1"/>
  <rect x="150" y="160" width="500" height="330" rx="3" fill="none" stroke="#C9A227" stroke-width="1.5" opacity="0.2"/>
  <line x1="150" y1="450" x2="650" y2="450" stroke="#C9A227" stroke-width="2" opacity="0.15"/>
  <!-- River-view window -->
  <path d="M230 240a40 40 0 0 1 80 0v110h-80Z" fill="#06281E" opacity="0.18"/>
  <path d="M234 286a36 36 0 0 1 72 0v64h-72Z" fill="#06281E" opacity="0.35"/>
  <rect x="246" y="330" width="48" height="12" fill="#C9A227" opacity="0.25"/>
  <line x1="270" y1="250" x2="270" y2="350" stroke="#C9A227" stroke-width="2" opacity="0.2"/>
  <line x1="234" y1="330" x2="306" y2="330" stroke="#C9A227" stroke-width="2" opacity="0.15"/>
  <!-- Bed -->
  <g fill="#06281E" opacity="0.16">
    <rect x="400" y="350" width="170" height="55" rx="6"/>
    <rect x="400" y="405" width="170" height="45" rx="4"/>
    <rect x="414" y="392" width="45" height="14" rx="5"/>
    <rect x="513" y="392" width="45" height="14" rx="5"/>
  </g>
  <!-- Floor lamp -->
  <g fill="#06281E" opacity="0.16">
    <rect x="367" y="400" width="6" height="55"/>
    <path d="M352 404h36l-6-16h-24Z"/>
    <ellipse cx="400" cy="470" rx="100" ry="14"/>
  </g>
  <!-- Side table -->
  <g fill="#06281E" opacity="0.16">
    <rect x="580" y="420" width="28" height="30"/>
    <rect x="578" y="414" width="32" height="6"/>
  </g>
  <!-- Label -->
  <rect x="30" y="520" width="120" height="50" rx="4" fill="#C9A227" opacity="0.85"/>
  <text x="90" y="550" text-anchor="middle" font-family="Georgia, serif" font-size="13" font-weight="bold" fill="#06281E">ROOMS</text>
</svg>
