<svg xmlns="http://www.w3.org/2000/svg" width="800" height="600" viewBox="0 0 800 600" fill="none">
  <defs>
    <linearGradient id="srGold" x1="0" y1="0" x2="1" y2="1" gradientUnits="objectBoundingBox">
      <stop offset="0%" stop-color="#E8C766"/>
      <stop offset="55%" stop-color="#C9A227"/>
      <stop offset="100%" stop-color="#8F6F14"/>
    </linearGradient>
  </defs>
  <!-- Wall -->
  <rect width="800" height="600" fill="#F7F0DD"/>
  <!-- Wainscot -->
  <rect x="0" y="380" width="800" height="80" fill="#EAD9B8"/>
  <rect x="0" y="378" width="800" height="4" fill="#C9A227"/>
  <!-- Wood floor -->
  <rect x="0" y="460" width="800" height="140" fill="#C79A6B"/>
  <g stroke="#A87B4A" stroke-width="2" opacity="0.6">
    <line x1="0" y1="495" x2="800" y2="495"/>
    <line x1="0" y1="530" x2="800" y2="530"/>
    <line x1="0" y1="565" x2="800" y2="565"/>
  </g>
  <!-- Rug -->
  <ellipse cx="500" cy="530" rx="190" ry="38" fill="#E85D5D" opacity="0.45"/>
  <ellipse cx="500" cy="530" rx="190" ry="38" fill="none" stroke="#C9A227" stroke-width="3"/>
  <!-- Window with beach view -->
  <rect x="50" y="70" width="220" height="300" fill="#FFFFFF" stroke="#C9A227" stroke-width="7"/>
  <rect x="62" y="82" width="196" height="276" fill="#BFE6F2"/>
  <!-- view: sky, sun, palm, sea, sand -->
  <circle cx="150" cy="130" r="20" fill="#F7D97E" opacity="0.95"/>
  <g fill="#FFFFFF" opacity="0.7">
    <ellipse cx="100" cy="110" rx="24" ry="6"/><ellipse cx="190" cy="120" rx="18" ry="5"/>
  </g>
  <g stroke="#0B5E3B" stroke-width="6" fill="none" stroke-linecap="round">
    <path d="M62 100 Q90 82 130 88 M62 108 Q80 96 105 100"/>
  </g>
  <rect x="62" y="230" width="196" height="52" fill="#1B6E9B"/>
  <path d="M62 250 Q100 244 140 250 T220 250" stroke="#FFFFFF" stroke-width="2" fill="none" opacity="0.6"/>
  <rect x="62" y="282" width="196" height="76" fill="#E8D5A8"/>
  <!-- Curtains -->
  <g fill="#FBF6EF">
    <rect x="36" y="64" width="20" height="312"/>
    <rect x="264" y="64" width="20" height="312"/>
  </g>
  <rect x="36" y="56" width="248" height="14" rx="4" fill="#E85D5D" opacity="0.85"/>
  <!-- Ceiling fan -->
  <line x1="400" y1="0" x2="400" y2="64" stroke="#6B4A2B" stroke-width="3"/>
  <g stroke="#C9A227" stroke-width="7" fill="none" opacity="0.85" stroke-linecap="round">
    <line x1="400" y1="66" x2="360" y2="66"/>
    <line x1="400" y1="66" x2="440" y2="66"/>
    <line x1="400" y1="66" x2="400" y2="26"/>
    <line x1="400" y1="66" x2="400" y2="106"/>
  </g>
  <circle cx="400" cy="66" r="7" fill="#6B4A2B"/>
  <circle cx="400" cy="128" r="2.5" fill="#C9A227"/>
  <!-- Bed -->
  <rect x="300" y="290" width="340" height="80" rx="6" fill="#8A5A33"/>
  <rect x="300" y="364" width="340" height="6" fill="#C9A227"/>
  <rect x="320" y="262" width="300" height="32" rx="6" fill="#8A5A33"/>
  <rect x="320" y="262" width="300" height="6" fill="#C9A227"/>
  <rect x="330" y="345" width="90" height="44" rx="6" fill="#FBF6EF" stroke="#D9C49B" stroke-width="2"/>
  <rect x="428" y="345" width="90" height="44" rx="6" fill="#FBF6EF" stroke="#D9C49B" stroke-width="2"/>
  <rect x="310" y="395" width="320" height="58" rx="8" fill="#FBF6EF"/>
  <!-- Floral print -->
  <g>
    <circle cx="350" cy="418" r="5" fill="#E85D5D" opacity="0.8"/><circle cx="380" cy="432" r="4.5" fill="#C9A227"/>
    <circle cx="420" cy="414" r="5" fill="#2E6E8E" opacity="0.8"/><circle cx="455" cy="430" r="4.5" fill="#E85D5D"/>
    <circle cx="490" cy="416" r="5" fill="#C9A227"/><circle cx="525" cy="432" r="4.5" fill="#2E6E8E" opacity="0.8"/>
    <circle cx="560" cy="418" r="5" fill="#E85D5D" opacity="0.8"/><circle cx="595" cy="430" r="4.5" fill="#C9A227"/>
  </g>
  <rect x="310" y="453" width="320" height="16" fill="#E85D5D" opacity="0.8"/>
  <!-- Art above bed -->
  <rect x="430" y="160" width="80" height="70" fill="#FBF6EF" stroke="#C9A227" stroke-width="4"/>
  <rect x="440" y="170" width="60" height="50" fill="#BFE6F2"/>
  <circle cx="470" cy="185" r="9" fill="#F7D97E"/>
  <rect x="440" y="195" width="60" height="10" fill="#1B6E9B"/>
  <rect x="440" y="205" width="60" height="15" fill="#E8D5A8"/>
  <!-- Wardrobe -->
  <rect x="700" y="180" width="80" height="160" rx="4" fill="#8A5A33"/>
  <rect x="710" y="195" width="60" height="100" rx="2" fill="#EAD9B8"/>
  <rect x="720" y="255" width="40" height="30" rx="3" fill="#6B4A2B"/>
  <circle cx="760" cy="250" r="3" fill="#C9A227"/>
  <rect x="700" y="340" width="80" height="8" fill="#C9A227"/>
  <!-- Nightstand + lamp -->
  <rect x="650" y="400" width="50" height="60" rx="3" fill="#8A5A33"/>
  <rect x="672" y="360" width="6" height="40" fill="#C9A227"/>
  <path d="M658 360 L692 360 L686 336 L664 336 Z" fill="#F7D97E"/>
  <circle cx="675" cy="385" r="40" fill="#F7D97E" opacity="0.3"/>
  <circle cx="675" cy="398" r="4" fill="#C9A227"/>
  <!-- Brass label -->
  <rect x="590" y="30" width="180" height="50" rx="4" fill="#C9A227" opacity="0.9"/>
  <text x="680" y="61" text-anchor="middle" font-family="Georgia, serif" font-size="15" font-weight="bold" fill="#06281E">ROOMS</text>
</svg>
