<svg xmlns="http://www.w3.org/2000/svg" width="800" height="600" viewBox="0 0 800 600" fill="none">
  <defs>
    <linearGradient id="sbcbg" x1="0" y1="0" x2="800" y2="600" gradientUnits="userSpaceOnUse">
      <stop offset="0%" stop-color="#0B3D2E"/>
      <stop offset="50%" stop-color="#13674A"/>
      <stop offset="100%" stop-color="#1E8A5F" stop-opacity="0.8"/>
    </linearGradient>
    <linearGradient id="sbcbuild" x1="0" y1="0" x2="0" y2="1">
      <stop offset="0%" stop-color="#0A3527"/>
      <stop offset="100%" stop-color="#06281E"/>
    </linearGradient>
  </defs>
  <rect width="800" height="600" fill="url(#sbcbg)"/>
  <!-- Sun -->
  <circle cx="610" cy="120" r="60" fill="#C9A227" opacity="0.3"/>
  <circle cx="610" cy="120" r="36" fill="#E3C565" opacity="0.55"/>
  <!-- Sea -->
  <rect x="0" y="330" width="800" height="270" fill="#0E4E63" opacity="0.5"/>
  <path d="M0 380 Q100 366 200 380 T400 380 T600 380 T800 380" stroke="#7FD1C8" stroke-width="2.5" opacity="0.4" fill="none"/>
  <path d="M0 420 Q130 404 260 420 T520 420 T800 420" stroke="#7FD1C8" stroke-width="2" opacity="0.3" fill="none"/>
  <path d="M0 470 Q150 452 300 470 T600 470 T800 470" stroke="#7FD1C8" stroke-width="2" opacity="0.2" fill="none"/>
  <!-- Building -->
  <g fill="url(#sbcbuild)">
    <rect x="330" y="150" width="300" height="330" rx="2"/>
  </g>
  <!-- Roof parapet -->
  <rect x="322" y="138" width="316" height="16" fill="#C9A227" opacity="0.8"/>
  <!-- Balcony grid: 5 columns x 5 floors -->
  <g stroke="#C9A227" stroke-width="2" opacity="0.85" fill="none">
    <rect x="350" y="176" width="46" height="42" rx="1"/><rect x="408" y="176" width="46" height="42" rx="1"/><rect x="466" y="176" width="46" height="42" rx="1"/><rect x="524" y="176" width="46" height="42" rx="1"/><rect x="582" y="176" width="46" height="42" rx="1"/>
    <rect x="350" y="246" width="46" height="42" rx="1"/><rect x="408" y="246" width="46" height="42" rx="1"/><rect x="466" y="246" width="46" height="42" rx="1"/><rect x="524" y="246" width="46" height="42" rx="1"/><rect x="582" y="246" width="46" height="42" rx="1"/>
    <rect x="350" y="316" width="46" height="42" rx="1"/><rect x="408" y="316" width="46" height="42" rx="1"/><rect x="466" y="316" width="46" height="42" rx="1"/><rect x="524" y="316" width="46" height="42" rx="1"/><rect x="582" y="316" width="46" height="42" rx="1"/>
    <rect x="350" y="386" width="46" height="42" rx="1"/><rect x="408" y="386" width="46" height="42" rx="1"/><rect x="466" y="386" width="46" height="42" rx="1"/><rect x="524" y="386" width="46" height="42" rx="1"/><rect x="582" y="386" width="46" height="42" rx="1"/>
    <rect x="350" y="426" width="46" height="24" rx="1"/><rect x="408" y="426" width="46" height="24" rx="1"/><rect x="466" y="426" width="46" height="24" rx="1"/><rect x="524" y="426" width="46" height="24" rx="1"/><rect x="582" y="426" width="46" height="24" rx="1"/>
  </g>
  <!-- Balcony floor rails -->
  <g stroke="#C9A227" stroke-width="1.5" opacity="0.6">
    <line x1="330" y1="228" x2="630" y2="228"/><line x1="330" y1="298" x2="630" y2="298"/><line x1="330" y1="368" x2="630" y2="368"/>
  </g>
  <!-- Palm tree left -->
  <g opacity="0.9">
    <rect x="108" y="240" width="8" height="240" rx="4" fill="#0A3527"/>
    <g fill="#13674A">
      <path d="M112 240 C80 210 60 190 40 210 C62 216 78 230 90 244 Z"/>
      <path d="M112 240 C140 208 164 192 188 210 C164 218 146 232 132 244 Z"/>
      <path d="M112 240 C92 220 84 200 92 178 C104 198 112 214 122 238 Z"/>
      <path d="M112 240 C136 224 156 212 168 188 C154 204 140 222 126 242 Z"/>
    </g>
  </g>
  <!-- Palm tree right -->
  <g opacity="0.85">
    <rect x="688" y="262" width="7" height="218" rx="3" fill="#0A3527"/>
    <g fill="#13674A">
      <path d="M691 262 C668 238 652 222 636 238 C654 244 668 254 678 266 Z"/>
      <path d="M691 262 C716 236 736 224 754 240 C734 248 718 258 704 266 Z"/>
      <path d="M691 262 C674 246 666 230 672 210 C682 228 688 242 700 260 Z"/>
    </g>
  </g>
  <!-- Ground -->
  <rect x="0" y="480" width="800" height="120" fill="#0A3527" opacity="0.85"/>
  <!-- Label -->
  <rect x="30" y="520" width="260" height="50" rx="4" fill="#C9A227" opacity="0.9"/>
  <text x="160" y="550" text-anchor="middle" font-family="Georgia, serif" font-size="14" font-weight="bold" fill="#06281E">SEA BREEZE APARTMENT</text>
</svg>
